<svg id="visual" viewBox="0 0 960 919" width="960" height="919" xmlns="http://www.w3.org/2000/svg" xmlns:xlink="http://www.w3.org/1999/xlink" version="1.1"><path d="M825 919L810.5 905C796 891 767 863 738.2 835.2C709.3 807.3 680.7 779.7 666.3 751.8C652 724 652 696 660 668.2C668 640.3 684 612.7 677.5 584.8C671 557 642 529 662.8 501.2C683.7 473.3 754.3 445.7 770.3 417.8C786.3 390 747.7 362 741.2 334.2C734.7 306.3 760.3 278.7 779.7 250.8C799 223 812 195 788 167.2C764 139.3 703 111.7 664.5 83.8C626 56 610 28 602 14L594 0L960 0L960 14C960 28 960 56 960 83.8C960 111.7 960 139.3 960 167.2C960 195 960 223 960 250.8C960 278.7 960 306.3 960 334.2C960 362 960 390 960 417.8C960 445.7 960 473.3 960 501.2C960 529 960 557 960 584.8C960 612.7 960 640.3 960 668.2C960 696 960 724 960 751.8C960 779.7 960 807.3 960 835.2C960 863 960 891 960 905L960 919Z" fill="#ffffff"></path><path d="M719 919L695 905C671 891 623 863 581.3 835.2C539.7 807.3 504.3 779.7 506 751.8C507.7 724 546.3 696 556 668.2C565.7 640.3 546.3 612.7 536.7 584.8C527 557 527 529 551 501.2C575 473.3 623 445.7 624.7 417.8C626.3 390 581.7 362 578.5 334.2C575.3 306.3 613.7 278.7 642.3 250.8C671 223 690 195 667.5 167.2C645 139.3 581 111.7 544.3 83.8C507.7 56 498.3 28 493.7 14L489 0L595 0L603 14C611 28 627 56 665.5 83.8C704 111.7 765 139.3 789 167.2C813 195 800 223 780.7 250.8C761.3 278.7 735.7 306.3 742.2 334.2C748.7 362 787.3 390 771.3 417.8C755.3 445.7 684.7 473.3 663.8 501.2C643 529 672 557 678.5 584.8C685 612.7 669 640.3 661 668.2C653 696 653 724 667.3 751.8C681.7 779.7 710.3 807.3 739.2 835.2C768 863 797 891 811.5 905L826 919Z" fill="#ecdbff"></path><path d="M585 919L567.3 905C549.7 891 514.3 863 479 835.2C443.7 807.3 408.3 779.7 403.5 751.8C398.7 724 424.3 696 432.3 668.2C440.3 640.3 430.7 612.7 422.7 584.8C414.7 557 408.3 529 432.3 501.2C456.3 473.3 510.7 445.7 510.7 417.8C510.7 390 456.3 362 454.8 334.2C453.3 306.3 504.7 278.7 541.5 250.8C578.3 223 600.7 195 576.7 167.2C552.7 139.3 482.3 111.7 445.5 83.8C408.7 56 405.3 28 403.7 14L402 0L490 0L494.7 14C499.3 28 508.7 56 545.3 83.8C582 111.7 646 139.3 668.5 167.2C691 195 672 223 643.3 250.8C614.7 278.7 576.3 306.3 579.5 334.2C582.7 362 627.3 390 625.7 417.8C624 445.7 576 473.3 552 501.2C528 529 528 557 537.7 584.8C547.3 612.7 566.7 640.3 557 668.2C547.3 696 508.7 724 507 751.8C505.3 779.7 540.7 807.3 582.3 835.2C624 863 672 891 696 905L720 919Z" fill="#d6b8ff"></path><path d="M297 919L292.2 905C287.3 891 277.7 863 269.7 835.2C261.7 807.3 255.3 779.7 255.3 751.8C255.3 724 261.7 696 247.2 668.2C232.7 640.3 197.3 612.7 181.3 584.8C165.3 557 168.7 529 184.7 501.2C200.7 473.3 229.3 445.7 238.8 417.8C248.3 390 238.7 362 235.5 334.2C232.3 306.3 235.7 278.7 237.3 250.8C239 223 239 195 237.3 167.2C235.7 139.3 232.3 111.7 229.2 83.8C226 56 223 28 221.5 14L220 0L403 0L404.7 14C406.3 28 409.7 56 446.5 83.8C483.3 111.7 553.7 139.3 577.7 167.2C601.7 195 579.3 223 542.5 250.8C505.7 278.7 454.3 306.3 455.8 334.2C457.3 362 511.7 390 511.7 417.8C511.7 445.7 457.3 473.3 433.3 501.2C409.3 529 415.7 557 423.7 584.8C431.7 612.7 441.3 640.3 433.3 668.2C425.3 696 399.7 724 404.5 751.8C409.3 779.7 444.7 807.3 480 835.2C515.3 863 550.7 891 568.3 905L586 919Z" fill="#bf94ff"></path><path d="M162 919L165.2 905C168.3 891 174.7 863 174.7 835.2C174.7 807.3 168.3 779.7 165.2 751.8C162 724 162 696 149.2 668.2C136.3 640.3 110.7 612.7 104.3 584.8C98 557 111 529 123.8 501.2C136.7 473.3 149.3 445.7 158.8 417.8C168.3 390 174.7 362 173.2 334.2C171.7 306.3 162.3 278.7 162.3 250.8C162.3 223 171.7 195 171.7 167.2C171.7 139.3 162.3 111.7 156 83.8C149.7 56 146.3 28 144.7 14L143 0L221 0L222.5 14C224 28 227 56 230.2 83.8C233.3 111.7 236.7 139.3 238.3 167.2C240 195 240 223 238.3 250.8C236.7 278.7 233.3 306.3 236.5 334.2C239.7 362 249.3 390 239.8 417.8C230.3 445.7 201.7 473.3 185.7 501.2C169.7 529 166.3 557 182.3 584.8C198.3 612.7 233.7 640.3 248.2 668.2C262.7 696 256.3 724 256.3 751.8C256.3 779.7 262.7 807.3 270.7 835.2C278.7 863 288.3 891 293.2 905L298 919Z" fill="#a571ff"></path><path d="M0 919L0 905C0 891 0 863 0 835.2C0 807.3 0 779.7 0 751.8C0 724 0 696 0 668.2C0 640.3 0 612.7 0 584.8C0 557 0 529 0 501.2C0 473.3 0 445.7 0 417.8C0 390 0 362 0 334.2C0 306.3 0 278.7 0 250.8C0 223 0 195 0 167.2C0 139.3 0 111.7 0 83.8C0 56 0 28 0 14L0 0L144 0L145.7 14C147.3 28 150.7 56 157 83.8C163.3 111.7 172.7 139.3 172.7 167.2C172.7 195 163.3 223 163.3 250.8C163.3 278.7 172.7 306.3 174.2 334.2C175.7 362 169.3 390 159.8 417.8C150.3 445.7 137.7 473.3 124.8 501.2C112 529 99 557 105.3 584.8C111.7 612.7 137.3 640.3 150.2 668.2C163 696 163 724 166.2 751.8C169.3 779.7 175.7 807.3 175.7 835.2C175.7 863 169.3 891 166.2 905L163 919Z" fill="#854cff"></path></svg>